<svg width="27" height="24" viewBox="0 0 27 24" fill="none" xmlns="http://www.w3.org/2000/svg">
<path d="M13.3208 5L13.3208 19" stroke="black" stroke-width="2"/>
<path d="M6.3208 12L20.3208 12" stroke="black" stroke-width="2"/>
<path d="M5.112 0.184113L5.016 0.0161133C5.016 0.0161133 0 4.04811 0 11.3441C0 19.4081 4.728 23.0321 4.728 23.0321L4.824 22.8881C4.824 22.8881 1.248 19.4081 1.248 11.3441C1.248 4.64811 5.112 0.184113 5.112 0.184113Z" fill="black"/>
<path d="M21.3209 22.8481L21.4169 23.0161C21.4169 23.0161 26.4329 18.9841 26.4329 11.6881C26.4329 3.62411 21.7049 0.000112534 21.7049 0.000112534L21.6089 0.144114C21.6089 0.144114 25.1849 3.62411 25.1849 11.6881C25.1849 18.3841 21.3209 22.8481 21.3209 22.8481Z" fill="black"/>
</svg>
